<svg id="Black" xmlns="http://www.w3.org/2000/svg" viewBox="0 0 1392 888"><defs><style>.cls-1{fill:#212121;}.cls-2{fill:#fff;}</style></defs><title>primate-labs-logo</title><rect class="cls-1" width="1392" height="888"/><path id="Primate_Labs" data-name="Primate Labs" class="cls-2" d="M308,664H260V792h20V744h26.47l19.88,48H348l-21.72-52.43A40,40,0,0,0,348,704h0A40,40,0,0,0,308,664Zm20,40a20,20,0,0,1-20,20H280V684h28a20,20,0,0,1,20,20h0ZM208,664H160V792h20V744h28a40,40,0,0,0,40-40h0A40,40,0,0,0,208,664Zm20,40a20,20,0,0,1-20,20H180V684h28a20,20,0,0,1,20,20h0Zm136,88h20V664H364V792Zm677-128L988,792h21.65l11.6-28h61.51l11.6,28H1116l-53-128h-22Zm-11.49,80L1052,689.75,1074.47,744h-44.94Zm166.42-24A34,34,0,0,0,1170,664h-46V792h48a40,40,0,0,0,40-40h0A39.94,39.94,0,0,0,1195.95,720ZM1144,684h26a14,14,0,0,1,0,28h-26V684Zm48,68a20,20,0,0,1-20,20h-28V732h28a20,20,0,0,1,20,20h0ZM932,664H912V792h64l8.28-20H932V664ZM468,766.25L425.65,664H404V792h20V712.28L457,792h22l33-79.72V792h20V664H510.35ZM1286.18,730c-5.85-6-14.4-10.81-26.13-14.57C1240,709,1240,700.28,1240,697a14.85,14.85,0,0,1,15-15c9.21,0,14.35,2.79,19.36,6.29l11.58-16.3c-7.55-5.27-16.63-10-30.93-10a35,35,0,0,0-35,35c0,22,18.46,32.49,34,37.45,20.34,6.52,22,14,22,20.55,0,9.14-7.26,19-19,19-8.64,0-17.55-3.39-28-10.62l-11.58,16.31c13.82,9.62,26.76,14.31,39.54,14.31,24.09,0,39-20.24,39-39C1296,745.12,1292.7,736.7,1286.18,730ZM597,664L544,792h21.65l11.6-28h61.51l11.6,28H672L619,664H597Zm-11.49,80L608,689.75,630.47,744H585.53ZM768,732h56V712H768V684h60V664H748V792h84V772H768V732ZM652,684h32V792h20V684h32V664H652v20Z" transform="translate(-32 -32)"/><path id="Goggles" class="cls-2" d="M570.4,232.47c15.95-6.61,56.49-18.78,143.3-20a3,3,0,0,1,2.4,4.85l-39.55,50.39a7.92,7.92,0,0,0-.56,9.06,19.36,19.36,0,0,1,3,8.32c0.6,6.71-3.68,11.89-10.91,13.21a146.89,146.89,0,0,0-17,4.17,8,8,0,0,0-3.94,2.71l-14.68,18.71a4,4,0,0,0,4,6.37c46.86-10.23,66.75-51,91.48-51,8.06,0,15.61,4.33,23.74,10.52a4,4,0,0,0,5.54-.73l54-68.86a8,8,0,0,1,7.26-3c36.32,4.46,56.74,11,67,15.25a0.5,0.5,0,0,0,.54-0.82c-12.62-12-68.36-29.6-158.11-29.6s-145.49,17.57-158.11,29.6A0.5,0.5,0,0,0,570.4,232.47Zm72,66.62a148.83,148.83,0,0,1,24.67-6.69c14.61-2.65,0-23.76-14.93-23.76C630,268.65,617.93,308.13,642.39,299.09ZM801,440.85c-19.77,7.34-30.52,5.94-39.66,4.37-9.62-2-17.46-4.1-33.36-4-15.9-.1-23.75,2-33.36,4-9.14,1.57-19.89,3-39.66-4.37a2,2,0,0,0-2.7,1.95c1.81,53.11,27.93,73.87,75.72,73.87s73.91-20.76,75.72-73.87A2,2,0,0,0,801,440.85ZM788.88,292.4a148.83,148.83,0,0,1,24.67,6.69c24.46,9,12.38-30.44-9.74-30.44C788.84,268.65,774.27,289.75,788.88,292.4Zm123-8.37c2.13-60.84-16.92-75.61-74.65-86.53-34.8-31.5-74-46.28-109.28-47.56-40.27,1-79.31,20.42-109.24,47.56C558.17,209,542,225.4,544.06,284,509.3,256.6,480.91,318.48,480,344.26c-0.19,25.93,20.43,98.27,33.77,108.32,6.74,5.52,18.54,6.68,27.24,6.33a73.61,73.61,0,0,0,31.74-8.47c17,41.48,31.87,55,42.37,83.9,2.76,7.44,11.82,8.81,15.46.26a45.94,45.94,0,0,0,3.26-12.69c34.76,24.76,72.31,38.05,83.56,51.51,3.28,3,4.26,7.66,9.21,8.44,5.93,1.09,8.14-4.14,10.85-7.21,24.82-28.51,102.19-34.46,144.43-124.92,9.64,5.64,21,8.5,31.84,9.15,14.59,0.83,22.86-2.3,28.25-6.11,13.08-9.25,33.78-80.93,34-107.92C975.42,320.95,947.1,256.24,911.88,284ZM938,447.59c-9.87,9-44.73,6.92-57.83-3.87-39.86,94.36-129,98.08-150.58,131.34a2,2,0,0,1-3.31,0c-14-21.6-56.55-30.75-95.57-60.38a55.81,55.81,0,0,1-6.11,18.64A2,2,0,0,1,621,533c-10-27.91-31-49.3-46.32-88.45-13.83,10.07-47.17,11.79-56.79,3-11-10-29.94-78.9-29.94-102.37s22.45-62.92,38.92-62.92c7.13,0,14.82,4.59,21.73,11-2.52-28.9,2.53-53.65,10.2-64,6.38-8.58,20.84-19.39,62.57-26.24,35-28.22,76.92-43.17,106.58-43.17s71.58,14.95,106.58,43.17c41.73,6.85,56.19,17.66,62.57,26.24,7.68,10.33,12.72,35.08,10.2,64,6.91-6.46,14.6-11,21.73-11,16.47,0,38.92,39.45,38.92,62.92S949,437.6,938,447.59ZM886.16,332.24a63,63,0,0,1-38.77,13c-72.18,0-96.13-56.6-119.42-56.6s-47.23,56.6-119.42,56.6a63,63,0,0,1-38.77-13,2,2,0,0,0-3.2,1.87c3.09,19.68,15.42,39.07,46.29,39.07,38.59,0,94.8-69.08,115.09-69.08s76.51,69.08,115.09,69.08c30.87,0,43.21-19.4,46.29-39.07A2,2,0,0,0,886.16,332.24ZM728,314.59c-13.64,0-43.28,30.25-53.22,46.28-11.56,18.64-21.68,40-22.56,71.45a2,2,0,0,0,1.35,2c34.6,11.78,39.37-4.93,74.43-3,35.06-1.89,39.83,14.81,74.43,3a2,2,0,0,0,1.35-2c-0.88-31.49-11-52.81-22.56-71.45C771.25,344.84,741.61,314.59,728,314.59Zm-20,41.51c-8-1.4-11.89-4.58-11.89-8.78,0-2.31,2.22-4,6.67-3.19,9.24,1.63,14.2,5.42,14.2,9.44C716.93,355.89,715.31,357.4,707.95,356.1Zm40,0c-7.36,1.3-9-.21-9-2.52,0-4,5-7.81,14.2-9.44,4.45-.79,6.67.88,6.67,3.19C759.88,351.52,755.95,354.7,748,356.1Z" transform="translate(-32 -32)"/></svg>